<svg xmlns="http://www.w3.org/2000/svg" viewBox="0 0 32 32" id="youtube-music"><path fill="#FBE7E3" d="M7,31c-3.31368,0 -6,-2.68632 -6,-6v-18c0,-3.31368 2.68632,-6 6,-6h18c3.31368,0 6,2.68632 6,6v18c0,3.31368 -2.68632,6 -6,6Z"></path><path fill="#FC573B" fill-rule="evenodd" d="M10.0465,10.2326c-1.13025,0 -2.0465,0.9162 -2.0465,2.0465v7.4418c0,1.1303 0.91625,2.0465 2.0465,2.0465h11.907c1.1302,0 2.0465,-0.9162 2.0465,-2.0465v-7.4418c0,-1.1303 -0.9163,-2.0465 -2.0465,-2.0465h-11.907Z"></path><path fill="#F9AA9D" fill-rule="evenodd" d="M14.7988,13.2888c-0.1724,-0.1034 -0.3872,-0.1061 -0.5622,-0.0071c-0.1749,0.0991 -0.2831,0.2847 -0.2831,0.4857v4.4652c0,0.201 0.1082,0.3866 0.2831,0.4857c0.175,0.099 0.3898,0.0963 0.5622,-0.0071l3.7209,-2.2326c0.1681,-0.1009 0.271,-0.2825 0.271,-0.4786c0,-0.1961 -0.1029,-0.3777 -0.271,-0.4786l-3.7209,-2.2326Z"></path></svg>